<svg width="343" height="144" viewBox="0 0 343 144" fill="none" xmlns="http://www.w3.org/2000/svg">
<mask id="mask0_2_2094" style="mask-type:alpha" maskUnits="userSpaceOnUse" x="0" y="0" width="343" height="144">
<rect width="343" height="144" rx="7.44843" fill="url(#paint0_linear_2_2094)"/>
</mask>
<g mask="url(#mask0_2_2094)">
<path d="M704.446 285.334C700.751 294.497 690.875 300.748 676.006 304.128C661.15 307.506 641.401 307.995 618.125 305.713C571.577 301.15 511.01 285.519 447.464 259.892C383.919 234.264 329.453 203.504 292.763 174.497C274.416 159.993 260.531 145.94 252.175 133.201C243.811 120.451 241.035 109.098 244.731 99.935C248.426 90.7719 258.301 84.5211 273.17 81.1407C288.026 77.7632 307.775 77.2746 331.052 79.5561C377.6 84.1187 438.167 99.7503 501.712 125.378C565.258 151.005 619.724 181.765 656.414 210.772C674.761 225.276 688.645 239.329 697.002 252.068C705.365 264.818 708.141 276.171 704.446 285.334Z" stroke="url(#paint1_linear_2_2094)" stroke-width="0.744843"/>
<path d="M703.284 313.559C698.344 322.116 687.691 326.925 672.496 328.193C657.314 329.461 637.69 327.183 614.961 321.67C569.508 310.645 511.721 286.7 452.382 252.441C393.044 218.181 343.413 180.109 311.138 146.258C294.999 129.331 283.216 113.475 276.722 99.693C270.223 85.8989 269.061 74.2694 274.001 65.7129C278.942 57.1564 289.594 52.3476 304.789 51.079C319.972 49.8116 339.595 52.0887 362.324 57.6018C407.777 68.6269 465.564 92.5723 524.903 126.831C584.242 161.091 633.872 199.163 666.147 233.014C682.286 249.941 694.07 265.797 700.563 279.579C707.062 293.373 708.224 305.003 703.284 313.559Z" stroke="url(#paint2_linear_2_2094)" stroke-width="0.744843"/>
<path d="M319.721 173.49C318.646 174.573 316.903 174.572 315.828 173.49C315.828 173.49 285.569 143.021 285.568 143.02C276.61 134 272.495 120.707 274.433 108.138C275.01 104.395 276.115 100.733 277.734 97.3133C279.138 94.3471 280.91 91.5605 282.988 89.0271C291.055 79.191 303.619 73.7462 316.257 74.4824C319.964 74.6982 323.761 75.4789 327.308 76.7606C332.865 78.7658 337.818 81.9316 342.027 86.1698L372.287 116.64C373.362 117.722 373.362 119.477 372.287 120.56L319.721 173.49Z" fill="white"/>
<g opacity="0.6">
<path d="M349.365 96.6423L350.651 97.9277L363.083 123.274L332.948 153.409L319.097 166.367L302.304 154.714L298.852 151.262L282.11 132.975C278.145 126.403 276.4 118.87 276.871 111.451L349.365 96.6423Z" fill="#FFCD6C"/>
<path d="M340.843 88.1209L349.365 96.6428L331.409 128.223L334.802 101L340.843 88.1209Z" fill="#FDE8D8"/>
<path d="M340.245 87.5237L340.842 88.1206L331.409 128.223L323.449 92.0193L326.543 78.8234C331.548 80.6172 336.239 83.5174 340.245 87.5237Z" fill="#445CEF"/>
<path d="M326.544 78.823L331.41 128.223L305.105 92.1917L304.935 77.749C311.741 76.0483 318.985 76.3135 325.647 78.5138C325.947 78.6131 326.246 78.7161 326.544 78.823Z" fill="#4AD3F0"/>
<path d="M304.935 77.7489L331.41 128.223L292.564 103.351L285.276 90.1671C286.003 89.2846 286.775 88.4348 287.596 87.6075L287.761 87.442C292.685 82.5501 298.642 79.3127 304.935 77.7489Z" fill="#FDE8D8"/>
<path d="M331.41 128.223L331.072 128.885L330.758 128.784L330.754 128.781L330.171 128.593L330.151 128.586L330.148 128.583L276.871 111.451C276.871 111.419 276.871 111.393 276.874 111.364C277.37 103.795 280.17 96.3503 285.276 90.1672L331.41 128.223Z" fill="#FF595E"/>
<path d="M330.756 128.784L330.753 128.781L298.852 151.262L287.68 140.09C285.613 138.023 283.842 135.779 282.369 133.397C282.279 133.261 282.194 133.118 282.11 132.976L330.146 128.583L330.15 128.586L331.171 128.492L330.756 128.784Z" fill="#445CEF"/>
<path d="M327.604 91.3867C328.266 92.7103 335.14 112.009 337.375 115.075C338.769 116.985 345.27 124.581 349.978 130.038C351.538 131.847 352.694 132.018 353.609 133.072L348.771 139.518L345.485 142.805C345.485 142.805 334.679 151.192 333.997 150.527C331.931 148.512 329.279 146.468 326.608 145.89C320.892 144.644 297.95 145.39 297.039 143.486C296.127 141.582 298.447 137.439 301.016 136.693C303.582 135.95 316.253 136.859 316.091 134.873C315.926 132.885 310.128 128.411 305.736 126.173C301.347 123.938 284.614 115.49 285.526 112.094C286.437 108.697 288.591 107.705 291.076 108.866C293.561 110.021 311.533 120.875 311.948 119.63C312.364 118.39 291.491 100.165 292.153 98.1799C292.818 96.1913 295.384 93.2944 296.792 93.8719C298.197 94.4527 316.587 113.505 317.165 112.59C317.745 111.678 305.817 89.9791 306.979 88.6555C308.137 87.3286 310.709 85.7554 312.033 86.9168C313.356 88.0717 324.785 110.271 325.616 109.778C326.446 109.278 320.646 92.5452 322.466 91.3871C324.292 90.2288 326.939 90.06 327.604 91.3867Z" fill="#7B6FE6"/>
<path d="M340.88 137.136C340.669 137.373 340.452 137.604 340.228 137.827C338.746 139.329 337.026 140.685 335.002 141.269C333.613 141.671 332.141 141.691 330.697 141.603C329.387 141.526 328.057 141.357 326.84 140.854C324.767 139.994 323.207 138.233 321.932 136.387C320.038 133.643 318.575 130.318 319.188 127.045C319.451 125.646 320.083 124.352 320.913 123.21C321.747 122.071 322.652 121.043 323.645 120.193C323.856 120.015 324.067 119.843 324.284 119.684L331.246 123.875C331.246 123.875 342.538 135.291 340.88 137.136Z" fill="#445CEF"/>
<path d="M339.099 122.334C339.388 122.798 339.677 123.262 340.004 123.694C340.861 124.816 341.996 125.724 342.778 126.902C343.505 127.998 343.894 129.309 343.891 130.623C343.881 133.072 342.538 135.291 340.88 137.137C339.612 138.282 338.178 139.248 336.546 139.725C335.161 140.124 333.688 140.144 332.245 140.056C330.931 139.981 329.601 139.813 328.388 139.307C326.315 138.447 324.751 136.689 323.477 134.843C321.582 132.099 320.119 128.774 320.735 125.497C320.995 124.102 321.631 122.805 322.461 121.663C322.841 121.147 323.233 120.651 323.645 120.193C323.856 120.015 324.067 119.843 324.284 119.684L330.82 123.708L339.099 122.334Z" fill="#00020A"/>
<path d="M337.766 120.495C337.818 120.541 337.867 120.596 337.915 120.651C337.928 120.664 337.941 120.683 337.954 120.696C338.392 121.199 338.746 121.767 339.099 122.334C338.814 123.716 338.129 125.03 337.056 126.104C336.877 126.282 336.692 126.448 336.501 126.6C336.456 126.646 336.41 126.685 336.361 126.714C335.048 127.749 333.468 128.277 331.875 128.307C331.817 128.307 331.755 128.31 331.697 128.31C331.174 128.307 330.652 128.251 330.136 128.138C330.081 128.122 330.026 128.112 329.977 128.096C328.673 127.784 327.431 127.119 326.416 126.104C326.166 125.854 325.942 125.591 325.734 125.319C325.666 125.231 325.601 125.147 325.543 125.05C324.434 123.454 324.015 121.523 324.284 119.684C324.323 119.651 324.365 119.616 324.411 119.59C324.453 119.554 324.498 119.522 324.55 119.489C325.248 118.986 325.997 118.574 326.792 118.273C327.003 118.192 327.217 118.12 327.431 118.055C328.741 117.66 330.188 117.549 331.775 117.812C332.355 117.906 332.942 118.026 333.517 118.185C333.572 118.195 333.627 118.211 333.682 118.227C334.366 118.419 335.035 118.665 335.658 118.977C335.716 119.003 335.778 119.032 335.829 119.064C336.55 119.434 337.208 119.905 337.766 120.495Z" fill="#FFC4D5"/>
<path d="M336.984 120.576C336.709 120.683 336.443 120.891 336.183 121.196C335.187 122.373 334.996 124.148 335.71 125.517C335.787 125.66 335.878 125.809 335.963 125.952C336.112 126.205 336.261 126.458 336.361 126.714C336.41 126.685 336.456 126.646 336.501 126.6C336.397 126.354 336.258 126.11 336.112 125.867C336.027 125.724 335.943 125.582 335.865 125.439C335.177 124.128 335.362 122.432 336.313 121.306C336.559 121.014 336.799 120.833 337.046 120.735C337.338 120.625 337.64 120.635 337.954 120.696C337.941 120.683 337.928 120.664 337.915 120.651C337.867 120.596 337.818 120.541 337.766 120.495C337.503 120.466 337.244 120.479 336.984 120.576ZM335.658 118.977C335.285 119.227 334.905 119.463 334.529 119.691C333.886 120.08 333.231 120.489 332.631 120.959C331.077 122.188 330.292 123.771 330.532 125.199C330.623 125.731 330.847 126.234 331.067 126.714C331.184 126.954 331.301 127.2 331.395 127.463C331.447 127.599 331.499 127.749 331.554 127.895C331.599 128.031 331.645 128.167 331.697 128.31C331.755 128.31 331.817 128.307 331.875 128.306C331.817 128.151 331.768 127.998 331.713 127.846C331.661 127.696 331.612 127.544 331.554 127.401C331.46 127.138 331.336 126.885 331.229 126.642C331.005 126.172 330.788 125.682 330.697 125.169C330.47 123.8 331.226 122.279 332.738 121.092C333.322 120.625 333.98 120.226 334.616 119.836C335.018 119.59 335.427 119.337 335.829 119.064C335.778 119.032 335.716 119.003 335.658 118.977ZM333.517 118.185C333.367 118.419 333.179 118.614 332.965 118.75C332.54 119.019 332.011 119.068 331.496 119.116C330.931 119.175 330.341 119.226 329.874 119.57C329.329 119.979 329.043 120.725 329.115 121.582C329.157 122.156 329.345 122.707 329.523 123.236C329.569 123.392 329.618 123.538 329.673 123.684C330.159 125.234 330.25 126.765 329.978 128.095C330.026 128.112 330.081 128.121 330.136 128.138C330.422 126.775 330.321 125.215 329.828 123.632C329.779 123.486 329.731 123.333 329.679 123.184C329.5 122.662 329.322 122.12 329.283 121.568C329.228 120.949 329.387 120.141 329.974 119.71C330.402 119.392 330.947 119.34 331.518 119.281C332.047 119.233 332.599 119.181 333.056 118.899C333.306 118.74 333.52 118.513 333.682 118.227C333.627 118.211 333.572 118.195 333.517 118.185ZM326.792 118.273C326.471 118.503 326.172 118.756 325.939 119.081C325.319 119.953 325.3 121.115 325.342 122.156C325.212 121.663 325.06 121.173 324.91 120.686C324.787 120.297 324.66 119.892 324.55 119.489C324.498 119.522 324.453 119.554 324.411 119.59C324.514 119.979 324.634 120.365 324.751 120.742C324.988 121.51 325.231 122.292 325.39 123.093C325.426 123.745 325.475 124.397 325.543 125.049C325.601 125.147 325.666 125.231 325.734 125.319C325.728 125.293 325.731 125.264 325.728 125.241C325.747 125.04 325.747 124.832 325.747 124.631C325.734 124.112 325.663 123.586 325.556 123.071C325.543 122.785 325.533 122.509 325.514 122.23C325.471 121.15 325.468 120.031 326.078 119.181C326.425 118.704 326.928 118.37 327.431 118.055C327.217 118.12 327.003 118.192 326.792 118.273Z" fill="#FDE8D8"/>
<path d="M327.934 138.654C329.764 136.824 329.764 133.857 327.934 132.028C326.104 130.198 323.138 130.198 321.308 132.028C319.478 133.857 319.478 136.824 321.308 138.654C323.138 140.483 326.104 140.483 327.934 138.654Z" fill="#FFCD6C"/>
<path d="M338.273 133.115L336.838 135.175L338.273 137.235C338.322 137.305 338.237 137.391 338.166 137.342L336.106 135.907L334.046 137.342C333.976 137.391 333.891 137.306 333.94 137.235L335.375 135.175L333.94 133.115C333.891 133.045 333.976 132.96 334.046 133.009L336.106 134.443L338.167 133.009C338.237 132.96 338.322 133.045 338.273 133.115Z" fill="#FDE8D8"/>
<path d="M325.065 125.304L323.998 126.835L325.065 128.366C325.101 128.418 325.037 128.481 324.985 128.445L323.455 127.379L321.924 128.445C321.872 128.481 321.808 128.418 321.845 128.366L322.911 126.835L321.845 125.304C321.808 125.252 321.872 125.189 321.924 125.225L323.455 126.291L324.986 125.225C325.038 125.189 325.101 125.252 325.065 125.304Z" fill="#FDE8D8"/>
<path d="M340.126 127.531L339.457 128.491L340.126 129.452C340.149 129.485 340.109 129.525 340.077 129.502L339.116 128.833L338.155 129.502C338.122 129.525 338.082 129.485 338.105 129.452L338.774 128.491L338.105 127.53C338.082 127.498 338.122 127.458 338.155 127.481L339.116 128.15L340.077 127.481C340.109 127.458 340.149 127.498 340.126 127.531Z" fill="#FDE8D8"/>
<path d="M331.082 130.868C331.432 130.518 331.432 129.949 331.082 129.598C330.731 129.248 330.162 129.248 329.812 129.598C329.461 129.949 329.461 130.518 329.812 130.868C330.162 131.219 330.731 131.219 331.082 130.868Z" fill="#FDE8D8"/>
<path d="M336.245 130.013C336.519 130.287 336.519 130.732 336.245 131.006C335.97 131.281 335.525 131.281 335.251 131.006C334.976 130.732 334.976 130.287 335.251 130.013C335.525 129.738 335.97 129.738 336.245 130.013Z" fill="#FDE8D8"/>
<path d="M332.628 134.817C332.978 135.167 332.978 135.736 332.628 136.086C332.277 136.437 331.708 136.437 331.358 136.086C331.007 135.736 331.007 135.167 331.358 134.817C331.709 134.466 332.277 134.466 332.628 134.817Z" fill="#FDE8D8"/>
<path d="M310.206 122.69C310.139 122.757 310.035 122.778 309.945 122.735C309.831 122.681 309.782 122.545 309.836 122.43C312.373 117.074 317.259 113.244 321.569 109.864C321.669 109.786 321.813 109.803 321.891 109.903C321.969 110.002 321.95 110.142 321.852 110.225C317.581 113.573 312.741 117.369 310.251 122.627C310.239 122.651 310.224 122.672 310.206 122.69Z" fill="#00020A"/>
<path d="M350.643 97.921L370.506 117.784L348.771 139.518C348.168 137.306 349.657 134.48 352.524 133.631C350.439 131.635 348.434 129.786 346.87 127.308C346.101 126.091 345.427 124.774 345.219 123.347C344.921 121.303 345.66 119.136 347.152 117.709C348.641 116.278 350.838 115.626 352.868 116.009C348.898 111.02 348.285 103.854 350.643 97.921Z" fill="#00020A"/>
<path d="M345.377 142.912L317.94 170.35L302.304 154.714C302.463 154.659 302.619 154.613 302.774 154.574C305.963 153.78 309.59 155.246 311.332 158.033C310.651 153.121 314.582 148.158 319.471 147.311C324.36 146.471 329.527 149.53 331.516 154.075C331.474 150.218 334.273 146.854 337.504 144.752C338.922 143.827 340.475 143.065 342.14 142.796C343.217 142.62 344.317 142.669 345.377 142.912Z" fill="#00020A"/>
<path d="M315.522 82.892L312.492 79.1295L316.548 81.6704L319.211 78.421L318.112 82.5011L321.386 84.4067L317.672 83.967L317.892 88.047L316.279 84.4312L312.297 86.0681L315.522 82.892Z" fill="#FDE8D8"/>
<path d="M297.906 128.779L294.877 125.017L298.932 127.558L301.595 124.308L300.496 128.389L303.77 130.294L300.056 129.854L300.276 133.935L298.664 130.319L294.681 131.956L297.906 128.779Z" fill="#FDE8D8"/>
<path d="M285.844 117.326C286.668 118.149 286.668 119.484 285.844 120.308C285.021 121.131 283.686 121.131 282.863 120.308C282.039 119.484 282.039 118.149 282.863 117.326C283.686 116.503 285.021 116.503 285.844 117.326Z" fill="#FDE8D8"/>
<path d="M312.252 144.048C310.725 141.967 307.801 141.518 305.72 143.044C303.639 144.571 303.189 147.495 304.716 149.577C306.242 151.658 309.167 152.107 311.248 150.58C313.329 149.054 313.779 146.129 312.252 144.048Z" fill="#FF595E"/>
<path d="M338.646 100.548C336.603 100.115 335.298 98.1072 335.732 96.0644C336.165 94.0218 338.172 92.7169 340.215 93.1503C342.258 93.5835 343.563 95.5909 343.129 97.6336C342.696 99.6764 340.689 100.981 338.646 100.548Z" fill="#7B6FE6"/>
<path d="M301.353 90.5771C302.83 89.1006 302.83 86.7066 301.353 85.23C299.877 83.7535 297.483 83.7535 296.006 85.23C294.53 86.7066 294.53 89.1006 296.006 90.5771C297.483 92.0537 299.877 92.0537 301.353 90.5771Z" fill="#445CEF"/>
</g>
</g>
<defs>
<linearGradient id="paint0_linear_2_2094" x1="17.7414" y1="9.60001" x2="306.448" y2="179.138" gradientUnits="userSpaceOnUse">
<stop stop-color="#6763FD"/>
<stop offset="1" stop-color="#B84EF1"/>
</linearGradient>
<linearGradient id="paint1_linear_2_2094" x1="501.852" y1="125.032" x2="447.325" y2="260.237" gradientUnits="userSpaceOnUse">
<stop stop-color="#7B6FE6"/>
<stop offset="1" stop-color="#D8D8D8" stop-opacity="0"/>
</linearGradient>
<linearGradient id="paint2_linear_2_2094" x1="525.089" y1="126.509" x2="452.196" y2="252.763" gradientUnits="userSpaceOnUse">
<stop stop-color="#7B6FE6"/>
<stop offset="1" stop-color="#D8D8D8" stop-opacity="0"/>
</linearGradient>
</defs>
</svg>
